<svg xmlns="http://www.w3.org/2000/svg" viewBox="0 0 560 720" width="560" height="720"><rect width="560" height="720" fill="#F2F1ED"/><circle cx="265.0" cy="35.0" r="2.20" fill="#1A1A1A" opacity="0.55"/><circle cx="275.0" cy="35.0" r="2.20" fill="#1A1A1A" opacity="0.55"/><circle cx="305.0" cy="35.0" r="2.30" fill="#1A1A1A" opacity="0.57"/><circle cx="315.0" cy="35.0" r="2.30" fill="#1A1A1A" opacity="0.57"/><circle cx="355.0" cy="35.0" r="2.20" fill="#1A1A1A" opacity="0.55"/><circle cx="305.0" cy="45.0" r="2.35" fill="#1A1A1A" opacity="0.57"/><circle cx="355.0" cy="45.0" r="2.20" fill="#1A1A1A" opacity="0.55"/><circle cx="255.0" cy="55.0" r="2.52" fill="#1A1A1A" opacity="0.60"/><circle cx="305.0" cy="55.0" r="2.27" fill="#1A1A1A" opacity="0.56"/><circle cx="365.0" cy="55.0" r="2.60" fill="#1A1A1A" opacity="0.62"/><circle cx="375.0" cy="55.0" r="2.60" fill="#1A1A1A" opacity="0.62"/><circle cx="215.0" cy="65.0" r="2.20" fill="#1A1A1A" opacity="0.55"/><circle cx="225.0" cy="65.0" r="2.30" fill="#1A1A1A" opacity="0.57"/><circle cx="235.0" cy="65.0" r="2.80" fill="#1A1A1A" opacity="0.65"/><circle cx="245.0" cy="65.0" r="2.80" fill="#1A1A1A" opacity="0.65"/><circle cx="315.0" cy="65.0" r="2.90" fill="#1A1A1A" opacity="0.67"/><circle cx="345.0" cy="65.0" r="2.20" fill="#1A1A1A" opacity="0.55"/><circle cx="355.0" cy="65.0" r="2.56" fill="#1A1A1A" opacity="0.61"/><circle cx="385.0" cy="65.0" r="2.50" fill="#1A1A1A" opacity="0.60"/><circle cx="215.0" cy="75.0" r="2.20" fill="#1A1A1A" opacity="0.55"/><circle cx="225.0" cy="75.0" r="2.27" fill="#1A1A1A" opacity="0.56"/><circle cx="245.0" cy="75.0" r="2.68" fill="#1A1A1A" opacity="0.63"/><circle cx="255.0" cy="75.0" r="2.60" fill="#1A1A1A" opacity="0.62"/><circle cx="265.0" cy="75.0" r="2.50" fill="#1A1A1A" opacity="0.60"/><circle cx="275.0" cy="75.0" r="2.35" fill="#1A1A1A" opacity="0.57"/><circle cx="305.0" cy="75.0" r="2.85" fill="#1A1A1A" opacity="0.66"/><circle cx="365.0" cy="75.0" r="2.68" fill="#1A1A1A" opacity="0.63"/><circle cx="415.0" cy="75.0" r="2.35" fill="#1A1A1A" opacity="0.57"/><circle cx="205.0" cy="85.0" r="2.60" fill="#1A1A1A" opacity="0.62"/><circle cx="255.0" cy="85.0" r="2.60" fill="#1A1A1A" opacity="0.62"/><circle cx="265.0" cy="85.0" r="2.40" fill="#1A1A1A" opacity="0.58"/><circle cx="275.0" cy="85.0" r="2.35" fill="#1A1A1A" opacity="0.57"/><circle cx="315.0" cy="85.0" r="2.68" fill="#1A1A1A" opacity="0.63"/><circle cx="325.0" cy="85.0" r="2.50" fill="#1A1A1A" opacity="0.60"/><circle cx="355.0" cy="85.0" r="2.40" fill="#1A1A1A" opacity="0.58"/><circle cx="285.0" cy="95.0" r="2.30" fill="#1A1A1A" opacity="0.57"/><circle cx="315.0" cy="95.0" r="2.40" fill="#1A1A1A" opacity="0.58"/><circle cx="385.0" cy="95.0" r="2.20" fill="#1A1A1A" opacity="0.55"/><circle cx="265.0" cy="105.0" r="2.40" fill="#1A1A1A" opacity="0.58"/><circle cx="295.0" cy="105.0" r="2.20" fill="#1A1A1A" opacity="0.55"/><circle cx="315.0" cy="105.0" r="2.43" fill="#1A1A1A" opacity="0.59"/><circle cx="365.0" cy="105.0" r="2.43" fill="#1A1A1A" opacity="0.59"/><circle cx="375.0" cy="105.0" r="2.60" fill="#1A1A1A" opacity="0.62"/><circle cx="385.0" cy="105.0" r="4.43" fill="#1A1A1A" opacity="0.92"/><circle cx="245.0" cy="115.0" r="2.68" fill="#1A1A1A" opacity="0.63"/><circle cx="265.0" cy="115.0" r="2.30" fill="#1A1A1A" opacity="0.57"/><circle cx="315.0" cy="115.0" r="2.68" fill="#1A1A1A" opacity="0.63"/><circle cx="355.0" cy="115.0" r="2.40" fill="#1A1A1A" opacity="0.58"/><circle cx="365.0" cy="115.0" r="2.60" fill="#1A1A1A" opacity="0.62"/><circle cx="375.0" cy="115.0" r="2.50" fill="#1A1A1A" opacity="0.60"/><circle cx="385.0" cy="115.0" r="2.60" fill="#1A1A1A" opacity="0.62"/><circle cx="255.0" cy="125.0" r="2.90" fill="#1A1A1A" opacity="0.67"/><circle cx="265.0" cy="125.0" r="2.80" fill="#1A1A1A" opacity="0.65"/><circle cx="275.0" cy="125.0" r="2.70" fill="#1A1A1A" opacity="0.63"/><circle cx="285.0" cy="125.0" r="2.40" fill="#1A1A1A" opacity="0.58"/><circle cx="305.0" cy="125.0" r="3.20" fill="#1A1A1A" opacity="0.72"/><circle cx="315.0" cy="125.0" r="3.00" fill="#1A1A1A" opacity="0.68"/><circle cx="135.0" cy="135.0" r="2.35" fill="#1A1A1A" opacity="0.57"/><circle cx="145.0" cy="135.0" r="3.10" fill="#1A1A1A" opacity="0.70"/><circle cx="165.0" cy="135.0" r="2.27" fill="#1A1A1A" opacity="0.56"/><circle cx="175.0" cy="135.0" r="2.52" fill="#1A1A1A" opacity="0.60"/><circle cx="265.0" cy="135.0" r="2.40" fill="#1A1A1A" opacity="0.58"/><circle cx="445.0" cy="135.0" r="2.43" fill="#1A1A1A" opacity="0.59"/><circle cx="455.0" cy="135.0" r="2.68" fill="#1A1A1A" opacity="0.63"/><circle cx="125.0" cy="145.0" r="2.32" fill="#1A1A1A" opacity="0.57"/><circle cx="135.0" cy="145.0" r="2.40" fill="#1A1A1A" opacity="0.58"/><circle cx="145.0" cy="145.0" r="3.60" fill="#1A1A1A" opacity="0.78"/><circle cx="415.0" cy="145.0" r="2.20" fill="#1A1A1A" opacity="0.55"/><circle cx="125.0" cy="155.0" r="2.60" fill="#1A1A1A" opacity="0.62"/><circle cx="135.0" cy="155.0" r="2.35" fill="#1A1A1A" opacity="0.57"/><circle cx="355.0" cy="155.0" r="2.20" fill="#1A1A1A" opacity="0.55"/><circle cx="115.0" cy="165.0" r="2.43" fill="#1A1A1A" opacity="0.59"/><circle cx="125.0" cy="165.0" r="2.80" fill="#1A1A1A" opacity="0.65"/><circle cx="135.0" cy="165.0" r="2.85" fill="#1A1A1A" opacity="0.66"/><circle cx="145.0" cy="165.0" r="2.68" fill="#1A1A1A" opacity="0.63"/><circle cx="165.0" cy="165.0" r="2.27" fill="#1A1A1A" opacity="0.56"/><circle cx="305.0" cy="165.0" r="2.68" fill="#1A1A1A" opacity="0.63"/><circle cx="445.0" cy="165.0" r="2.35" fill="#1A1A1A" opacity="0.57"/><circle cx="455.0" cy="165.0" r="2.43" fill="#1A1A1A" opacity="0.59"/><circle cx="135.0" cy="175.0" r="2.60" fill="#1A1A1A" opacity="0.62"/><circle cx="455.0" cy="175.0" r="2.60" fill="#1A1A1A" opacity="0.62"/><circle cx="135.0" cy="185.0" r="2.68" fill="#1A1A1A" opacity="0.63"/><circle cx="205.0" cy="185.0" r="2.68" fill="#1A1A1A" opacity="0.63"/><circle cx="315.0" cy="185.0" r="2.77" fill="#1A1A1A" opacity="0.64"/><circle cx="85.0" cy="195.0" r="2.20" fill="#1A1A1A" opacity="0.55"/><circle cx="225.0" cy="195.0" r="2.20" fill="#1A1A1A" opacity="0.55"/><circle cx="235.0" cy="195.0" r="2.32" fill="#1A1A1A" opacity="0.57"/><circle cx="325.0" cy="195.0" r="2.32" fill="#1A1A1A" opacity="0.57"/><circle cx="225.0" cy="205.0" r="4.10" fill="#1A1A1A" opacity="0.87"/><circle cx="235.0" cy="205.0" r="3.40" fill="#1A1A1A" opacity="0.75"/><circle cx="315.0" cy="205.0" r="2.68" fill="#1A1A1A" opacity="0.63"/><circle cx="325.0" cy="205.0" r="4.40" fill="#1A1A1A" opacity="0.92"/><circle cx="175.0" cy="215.0" r="2.43" fill="#1A1A1A" opacity="0.59"/><circle cx="205.0" cy="215.0" r="2.27" fill="#1A1A1A" opacity="0.56"/><circle cx="225.0" cy="215.0" r="2.60" fill="#1A1A1A" opacity="0.62"/><circle cx="315.0" cy="215.0" r="2.27" fill="#1A1A1A" opacity="0.56"/><circle cx="325.0" cy="215.0" r="2.60" fill="#1A1A1A" opacity="0.62"/><circle cx="255.0" cy="235.0" r="2.85" fill="#1A1A1A" opacity="0.66"/><circle cx="265.0" cy="235.0" r="2.40" fill="#1A1A1A" opacity="0.58"/><circle cx="275.0" cy="235.0" r="2.43" fill="#1A1A1A" opacity="0.59"/><circle cx="285.0" cy="235.0" r="2.43" fill="#1A1A1A" opacity="0.59"/><circle cx="435.0" cy="235.0" r="2.90" fill="#1A1A1A" opacity="0.67"/><circle cx="445.0" cy="235.0" r="3.18" fill="#1A1A1A" opacity="0.71"/><circle cx="455.0" cy="235.0" r="2.35" fill="#1A1A1A" opacity="0.57"/><circle cx="435.0" cy="245.0" r="2.90" fill="#1A1A1A" opacity="0.67"/><circle cx="305.0" cy="265.0" r="2.68" fill="#1A1A1A" opacity="0.63"/><circle cx="145.0" cy="275.0" r="2.52" fill="#1A1A1A" opacity="0.60"/><circle cx="285.0" cy="275.0" r="2.35" fill="#1A1A1A" opacity="0.57"/><circle cx="455.0" cy="275.0" r="2.43" fill="#1A1A1A" opacity="0.59"/><circle cx="495.0" cy="275.0" r="2.77" fill="#1A1A1A" opacity="0.64"/><circle cx="55.0" cy="285.0" r="3.10" fill="#1A1A1A" opacity="0.70"/><circle cx="65.0" cy="285.0" r="3.10" fill="#1A1A1A" opacity="0.70"/><circle cx="125.0" cy="285.0" r="3.16" fill="#1A1A1A" opacity="0.71"/><circle cx="165.0" cy="285.0" r="2.40" fill="#1A1A1A" opacity="0.58"/><circle cx="415.0" cy="285.0" r="2.60" fill="#1A1A1A" opacity="0.62"/><circle cx="445.0" cy="285.0" r="2.70" fill="#1A1A1A" opacity="0.63"/><circle cx="455.0" cy="285.0" r="2.50" fill="#1A1A1A" opacity="0.60"/><circle cx="475.0" cy="285.0" r="3.20" fill="#1A1A1A" opacity="0.72"/><circle cx="485.0" cy="285.0" r="2.80" fill="#1A1A1A" opacity="0.65"/><circle cx="495.0" cy="285.0" r="3.00" fill="#1A1A1A" opacity="0.68"/><circle cx="505.0" cy="285.0" r="2.60" fill="#1A1A1A" opacity="0.62"/><circle cx="545.0" cy="285.0" r="3.16" fill="#1A1A1A" opacity="0.71"/><circle cx="55.0" cy="295.0" r="3.68" fill="#1A1A1A" opacity="0.80"/><circle cx="65.0" cy="295.0" r="3.60" fill="#1A1A1A" opacity="0.78"/><circle cx="75.0" cy="295.0" r="2.80" fill="#1A1A1A" opacity="0.65"/><circle cx="85.0" cy="295.0" r="2.52" fill="#1A1A1A" opacity="0.60"/><circle cx="125.0" cy="295.0" r="2.90" fill="#1A1A1A" opacity="0.67"/><circle cx="145.0" cy="295.0" r="2.27" fill="#1A1A1A" opacity="0.56"/><circle cx="165.0" cy="295.0" r="2.27" fill="#1A1A1A" opacity="0.56"/><circle cx="175.0" cy="295.0" r="2.68" fill="#1A1A1A" opacity="0.63"/><circle cx="355.0" cy="295.0" r="2.30" fill="#1A1A1A" opacity="0.57"/><circle cx="365.0" cy="295.0" r="2.77" fill="#1A1A1A" opacity="0.64"/><circle cx="395.0" cy="295.0" r="2.27" fill="#1A1A1A" opacity="0.56"/><circle cx="425.0" cy="295.0" r="2.60" fill="#1A1A1A" opacity="0.62"/><circle cx="435.0" cy="295.0" r="2.60" fill="#1A1A1A" opacity="0.62"/><circle cx="455.0" cy="295.0" r="2.43" fill="#1A1A1A" opacity="0.59"/><circle cx="475.0" cy="295.0" r="3.93" fill="#1A1A1A" opacity="0.84"/><circle cx="485.0" cy="295.0" r="2.50" fill="#1A1A1A" opacity="0.60"/><circle cx="505.0" cy="295.0" r="2.60" fill="#1A1A1A" opacity="0.62"/><circle cx="515.0" cy="295.0" r="2.20" fill="#1A1A1A" opacity="0.55"/><circle cx="545.0" cy="295.0" r="2.70" fill="#1A1A1A" opacity="0.63"/><circle cx="75.0" cy="305.0" r="2.20" fill="#1A1A1A" opacity="0.55"/><circle cx="85.0" cy="305.0" r="2.20" fill="#1A1A1A" opacity="0.55"/><circle cx="125.0" cy="305.0" r="2.32" fill="#1A1A1A" opacity="0.57"/><circle cx="145.0" cy="305.0" r="2.20" fill="#1A1A1A" opacity="0.55"/><circle cx="235.0" cy="305.0" r="2.20" fill="#1A1A1A" opacity="0.55"/><circle cx="425.0" cy="305.0" r="2.20" fill="#1A1A1A" opacity="0.55"/><circle cx="435.0" cy="305.0" r="2.44" fill="#1A1A1A" opacity="0.59"/><circle cx="545.0" cy="305.0" r="2.32" fill="#1A1A1A" opacity="0.57"/><circle cx="25.0" cy="315.0" r="2.27" fill="#1A1A1A" opacity="0.56"/><circle cx="65.0" cy="315.0" r="2.43" fill="#1A1A1A" opacity="0.59"/><circle cx="75.0" cy="315.0" r="2.60" fill="#1A1A1A" opacity="0.62"/><circle cx="85.0" cy="315.0" r="2.35" fill="#1A1A1A" opacity="0.57"/><circle cx="115.0" cy="315.0" r="2.27" fill="#1A1A1A" opacity="0.56"/><circle cx="125.0" cy="315.0" r="2.60" fill="#1A1A1A" opacity="0.62"/><circle cx="135.0" cy="315.0" r="2.68" fill="#1A1A1A" opacity="0.63"/><circle cx="145.0" cy="315.0" r="2.27" fill="#1A1A1A" opacity="0.56"/><circle cx="185.0" cy="315.0" r="2.60" fill="#1A1A1A" opacity="0.62"/><circle cx="235.0" cy="315.0" r="2.50" fill="#1A1A1A" opacity="0.60"/><circle cx="255.0" cy="315.0" r="2.35" fill="#1A1A1A" opacity="0.57"/><circle cx="425.0" cy="315.0" r="2.52" fill="#1A1A1A" opacity="0.60"/><circle cx="435.0" cy="315.0" r="2.50" fill="#1A1A1A" opacity="0.60"/><circle cx="445.0" cy="315.0" r="2.27" fill="#1A1A1A" opacity="0.56"/><circle cx="485.0" cy="315.0" r="2.40" fill="#1A1A1A" opacity="0.58"/><circle cx="495.0" cy="315.0" r="2.27" fill="#1A1A1A" opacity="0.56"/><circle cx="505.0" cy="315.0" r="2.35" fill="#1A1A1A" opacity="0.57"/><circle cx="535.0" cy="315.0" r="2.27" fill="#1A1A1A" opacity="0.56"/><circle cx="545.0" cy="315.0" r="2.30" fill="#1A1A1A" opacity="0.57"/><circle cx="15.0" cy="325.0" r="2.70" fill="#1A1A1A" opacity="0.63"/><circle cx="25.0" cy="325.0" r="2.27" fill="#1A1A1A" opacity="0.56"/><circle cx="35.0" cy="325.0" r="2.43" fill="#1A1A1A" opacity="0.59"/><circle cx="45.0" cy="325.0" r="2.30" fill="#1A1A1A" opacity="0.57"/><circle cx="65.0" cy="325.0" r="2.60" fill="#1A1A1A" opacity="0.62"/><circle cx="75.0" cy="325.0" r="2.70" fill="#1A1A1A" opacity="0.63"/><circle cx="85.0" cy="325.0" r="2.43" fill="#1A1A1A" opacity="0.59"/><circle cx="115.0" cy="325.0" r="2.68" fill="#1A1A1A" opacity="0.63"/><circle cx="125.0" cy="325.0" r="2.80" fill="#1A1A1A" opacity="0.65"/><circle cx="135.0" cy="325.0" r="2.35" fill="#1A1A1A" opacity="0.57"/><circle cx="165.0" cy="325.0" r="2.35" fill="#1A1A1A" opacity="0.57"/><circle cx="175.0" cy="325.0" r="2.52" fill="#1A1A1A" opacity="0.60"/><circle cx="245.0" cy="325.0" r="2.60" fill="#1A1A1A" opacity="0.62"/><circle cx="255.0" cy="325.0" r="2.60" fill="#1A1A1A" opacity="0.62"/><circle cx="265.0" cy="325.0" r="2.30" fill="#1A1A1A" opacity="0.57"/><circle cx="405.0" cy="325.0" r="2.20" fill="#1A1A1A" opacity="0.55"/><circle cx="415.0" cy="325.0" r="2.43" fill="#1A1A1A" opacity="0.59"/><circle cx="425.0" cy="325.0" r="2.52" fill="#1A1A1A" opacity="0.60"/><circle cx="25.0" cy="335.0" r="2.40" fill="#1A1A1A" opacity="0.58"/><circle cx="35.0" cy="335.0" r="2.60" fill="#1A1A1A" opacity="0.62"/><circle cx="45.0" cy="335.0" r="2.44" fill="#1A1A1A" opacity="0.59"/><circle cx="65.0" cy="335.0" r="3.00" fill="#1A1A1A" opacity="0.68"/><circle cx="75.0" cy="335.0" r="3.04" fill="#1A1A1A" opacity="0.69"/><circle cx="125.0" cy="335.0" r="3.16" fill="#1A1A1A" opacity="0.71"/><circle cx="155.0" cy="335.0" r="2.20" fill="#1A1A1A" opacity="0.55"/><circle cx="165.0" cy="335.0" r="2.60" fill="#1A1A1A" opacity="0.62"/><circle cx="175.0" cy="335.0" r="2.80" fill="#1A1A1A" opacity="0.65"/><circle cx="255.0" cy="335.0" r="2.90" fill="#1A1A1A" opacity="0.67"/><circle cx="265.0" cy="335.0" r="2.56" fill="#1A1A1A" opacity="0.61"/><circle cx="415.0" cy="335.0" r="2.70" fill="#1A1A1A" opacity="0.63"/><circle cx="165.0" cy="345.0" r="2.27" fill="#1A1A1A" opacity="0.56"/><circle cx="175.0" cy="345.0" r="2.60" fill="#1A1A1A" opacity="0.62"/><circle cx="255.0" cy="345.0" r="2.52" fill="#1A1A1A" opacity="0.60"/><circle cx="265.0" cy="345.0" r="2.40" fill="#1A1A1A" opacity="0.58"/><circle cx="275.0" cy="345.0" r="2.35" fill="#1A1A1A" opacity="0.57"/><circle cx="285.0" cy="345.0" r="2.27" fill="#1A1A1A" opacity="0.56"/><circle cx="275.0" cy="365.0" r="2.35" fill="#1A1A1A" opacity="0.57"/><circle cx="355.0" cy="375.0" r="2.50" fill="#1A1A1A" opacity="0.60"/><circle cx="355.0" cy="385.0" r="2.68" fill="#1A1A1A" opacity="0.63"/><circle cx="365.0" cy="385.0" r="3.00" fill="#1A1A1A" opacity="0.68"/><circle cx="325.0" cy="405.0" r="2.50" fill="#1A1A1A" opacity="0.60"/><circle cx="335.0" cy="405.0" r="3.02" fill="#1A1A1A" opacity="0.69"/><circle cx="365.0" cy="405.0" r="2.77" fill="#1A1A1A" opacity="0.64"/><circle cx="315.0" cy="425.0" r="2.68" fill="#1A1A1A" opacity="0.63"/><circle cx="365.0" cy="425.0" r="2.68" fill="#1A1A1A" opacity="0.63"/><circle cx="365.0" cy="435.0" r="2.93" fill="#1A1A1A" opacity="0.67"/><circle cx="315.0" cy="445.0" r="2.80" fill="#1A1A1A" opacity="0.65"/><circle cx="355.0" cy="445.0" r="2.80" fill="#1A1A1A" opacity="0.65"/><circle cx="365.0" cy="445.0" r="2.90" fill="#1A1A1A" opacity="0.67"/><circle cx="305.0" cy="455.0" r="2.77" fill="#1A1A1A" opacity="0.64"/><circle cx="315.0" cy="455.0" r="2.68" fill="#1A1A1A" opacity="0.63"/><circle cx="345.0" cy="455.0" r="2.60" fill="#1A1A1A" opacity="0.62"/><circle cx="355.0" cy="455.0" r="2.40" fill="#1A1A1A" opacity="0.58"/><circle cx="365.0" cy="455.0" r="2.52" fill="#1A1A1A" opacity="0.60"/><circle cx="315.0" cy="465.0" r="2.20" fill="#1A1A1A" opacity="0.55"/><circle cx="265.0" cy="475.0" r="2.30" fill="#1A1A1A" opacity="0.57"/><circle cx="315.0" cy="475.0" r="2.52" fill="#1A1A1A" opacity="0.60"/><circle cx="355.0" cy="475.0" r="2.20" fill="#1A1A1A" opacity="0.55"/><circle cx="365.0" cy="475.0" r="2.52" fill="#1A1A1A" opacity="0.60"/><circle cx="255.0" cy="485.0" r="2.77" fill="#1A1A1A" opacity="0.64"/><circle cx="265.0" cy="485.0" r="2.40" fill="#1A1A1A" opacity="0.58"/><circle cx="295.0" cy="485.0" r="2.60" fill="#1A1A1A" opacity="0.62"/><circle cx="305.0" cy="485.0" r="2.60" fill="#1A1A1A" opacity="0.62"/><circle cx="315.0" cy="485.0" r="2.85" fill="#1A1A1A" opacity="0.66"/><circle cx="355.0" cy="485.0" r="2.40" fill="#1A1A1A" opacity="0.58"/><circle cx="365.0" cy="485.0" r="2.60" fill="#1A1A1A" opacity="0.62"/><circle cx="245.0" cy="495.0" r="2.80" fill="#1A1A1A" opacity="0.65"/><circle cx="255.0" cy="495.0" r="2.90" fill="#1A1A1A" opacity="0.67"/><circle cx="265.0" cy="495.0" r="2.56" fill="#1A1A1A" opacity="0.61"/><circle cx="275.0" cy="495.0" r="2.60" fill="#1A1A1A" opacity="0.62"/><circle cx="285.0" cy="495.0" r="2.60" fill="#1A1A1A" opacity="0.62"/><circle cx="295.0" cy="495.0" r="2.80" fill="#1A1A1A" opacity="0.65"/><circle cx="305.0" cy="495.0" r="2.80" fill="#1A1A1A" opacity="0.65"/><circle cx="315.0" cy="495.0" r="2.90" fill="#1A1A1A" opacity="0.67"/><circle cx="335.0" cy="495.0" r="2.30" fill="#1A1A1A" opacity="0.57"/><circle cx="345.0" cy="495.0" r="2.60" fill="#1A1A1A" opacity="0.62"/><circle cx="355.0" cy="495.0" r="2.56" fill="#1A1A1A" opacity="0.61"/><circle cx="365.0" cy="495.0" r="2.90" fill="#1A1A1A" opacity="0.67"/><circle cx="385.0" cy="495.0" r="2.70" fill="#1A1A1A" opacity="0.63"/><circle cx="395.0" cy="495.0" r="2.70" fill="#1A1A1A" opacity="0.63"/><circle cx="405.0" cy="495.0" r="2.20" fill="#1A1A1A" opacity="0.55"/><circle cx="235.0" cy="505.0" r="2.60" fill="#1A1A1A" opacity="0.62"/><circle cx="255.0" cy="505.0" r="2.60" fill="#1A1A1A" opacity="0.62"/><circle cx="265.0" cy="505.0" r="2.40" fill="#1A1A1A" opacity="0.58"/><circle cx="305.0" cy="505.0" r="2.52" fill="#1A1A1A" opacity="0.60"/><circle cx="315.0" cy="505.0" r="2.60" fill="#1A1A1A" opacity="0.62"/><circle cx="355.0" cy="505.0" r="2.30" fill="#1A1A1A" opacity="0.57"/><circle cx="365.0" cy="505.0" r="2.60" fill="#1A1A1A" opacity="0.62"/><circle cx="375.0" cy="505.0" r="2.80" fill="#1A1A1A" opacity="0.65"/><circle cx="395.0" cy="505.0" r="2.27" fill="#1A1A1A" opacity="0.56"/><circle cx="315.0" cy="515.0" r="2.20" fill="#1A1A1A" opacity="0.55"/><circle cx="365.0" cy="515.0" r="2.20" fill="#1A1A1A" opacity="0.55"/><circle cx="385.0" cy="515.0" r="2.20" fill="#1A1A1A" opacity="0.55"/><circle cx="315.0" cy="525.0" r="2.27" fill="#1A1A1A" opacity="0.56"/><circle cx="355.0" cy="525.0" r="2.20" fill="#1A1A1A" opacity="0.55"/><circle cx="365.0" cy="525.0" r="2.27" fill="#1A1A1A" opacity="0.56"/><circle cx="375.0" cy="525.0" r="2.80" fill="#1A1A1A" opacity="0.65"/><circle cx="385.0" cy="525.0" r="3.93" fill="#1A1A1A" opacity="0.84"/><circle cx="225.0" cy="535.0" r="2.35" fill="#1A1A1A" opacity="0.57"/><circle cx="295.0" cy="535.0" r="2.40" fill="#1A1A1A" opacity="0.58"/><circle cx="305.0" cy="535.0" r="2.77" fill="#1A1A1A" opacity="0.64"/><circle cx="355.0" cy="535.0" r="2.50" fill="#1A1A1A" opacity="0.60"/><circle cx="365.0" cy="535.0" r="2.68" fill="#1A1A1A" opacity="0.63"/><circle cx="385.0" cy="535.0" r="2.35" fill="#1A1A1A" opacity="0.57"/><circle cx="395.0" cy="535.0" r="2.35" fill="#1A1A1A" opacity="0.57"/><circle cx="405.0" cy="535.0" r="2.20" fill="#1A1A1A" opacity="0.55"/><circle cx="435.0" cy="535.0" r="2.80" fill="#1A1A1A" opacity="0.65"/><circle cx="125.0" cy="545.0" r="3.04" fill="#1A1A1A" opacity="0.69"/><circle cx="175.0" cy="545.0" r="2.90" fill="#1A1A1A" opacity="0.67"/><circle cx="205.0" cy="545.0" r="2.70" fill="#1A1A1A" opacity="0.63"/><circle cx="215.0" cy="545.0" r="2.56" fill="#1A1A1A" opacity="0.61"/><circle cx="225.0" cy="545.0" r="2.30" fill="#1A1A1A" opacity="0.57"/><circle cx="255.0" cy="545.0" r="3.20" fill="#1A1A1A" opacity="0.72"/><circle cx="265.0" cy="545.0" r="2.80" fill="#1A1A1A" opacity="0.65"/><circle cx="275.0" cy="545.0" r="2.80" fill="#1A1A1A" opacity="0.65"/><circle cx="285.0" cy="545.0" r="2.50" fill="#1A1A1A" opacity="0.60"/><circle cx="305.0" cy="545.0" r="2.90" fill="#1A1A1A" opacity="0.67"/><circle cx="315.0" cy="545.0" r="3.00" fill="#1A1A1A" opacity="0.68"/><circle cx="345.0" cy="545.0" r="2.20" fill="#1A1A1A" opacity="0.55"/><circle cx="355.0" cy="545.0" r="2.80" fill="#1A1A1A" opacity="0.65"/><circle cx="365.0" cy="545.0" r="2.80" fill="#1A1A1A" opacity="0.65"/><circle cx="395.0" cy="545.0" r="2.30" fill="#1A1A1A" opacity="0.57"/><circle cx="405.0" cy="545.0" r="2.56" fill="#1A1A1A" opacity="0.61"/><circle cx="415.0" cy="545.0" r="3.00" fill="#1A1A1A" opacity="0.68"/><circle cx="435.0" cy="545.0" r="3.64" fill="#1A1A1A" opacity="0.79"/><circle cx="445.0" cy="545.0" r="2.60" fill="#1A1A1A" opacity="0.62"/><circle cx="455.0" cy="545.0" r="2.90" fill="#1A1A1A" opacity="0.67"/><circle cx="465.0" cy="545.0" r="3.52" fill="#1A1A1A" opacity="0.77"/><circle cx="475.0" cy="545.0" r="2.60" fill="#1A1A1A" opacity="0.62"/><circle cx="495.0" cy="545.0" r="3.20" fill="#1A1A1A" opacity="0.72"/><circle cx="115.0" cy="555.0" r="2.68" fill="#1A1A1A" opacity="0.63"/><circle cx="125.0" cy="555.0" r="3.00" fill="#1A1A1A" opacity="0.68"/><circle cx="135.0" cy="555.0" r="2.77" fill="#1A1A1A" opacity="0.64"/><circle cx="165.0" cy="555.0" r="2.35" fill="#1A1A1A" opacity="0.57"/><circle cx="205.0" cy="555.0" r="2.35" fill="#1A1A1A" opacity="0.57"/><circle cx="245.0" cy="555.0" r="2.77" fill="#1A1A1A" opacity="0.64"/><circle cx="255.0" cy="555.0" r="2.85" fill="#1A1A1A" opacity="0.66"/><circle cx="285.0" cy="555.0" r="2.43" fill="#1A1A1A" opacity="0.59"/><circle cx="315.0" cy="555.0" r="2.77" fill="#1A1A1A" opacity="0.64"/><circle cx="355.0" cy="555.0" r="2.50" fill="#1A1A1A" opacity="0.60"/><circle cx="405.0" cy="555.0" r="2.20" fill="#1A1A1A" opacity="0.55"/><circle cx="445.0" cy="555.0" r="2.27" fill="#1A1A1A" opacity="0.56"/><circle cx="455.0" cy="555.0" r="2.93" fill="#1A1A1A" opacity="0.67"/><circle cx="465.0" cy="555.0" r="2.30" fill="#1A1A1A" opacity="0.57"/><circle cx="505.0" cy="555.0" r="2.77" fill="#1A1A1A" opacity="0.64"/><circle cx="135.0" cy="565.0" r="2.43" fill="#1A1A1A" opacity="0.59"/><circle cx="235.0" cy="565.0" r="2.50" fill="#1A1A1A" opacity="0.60"/><circle cx="255.0" cy="565.0" r="2.60" fill="#1A1A1A" opacity="0.62"/><circle cx="315.0" cy="565.0" r="2.43" fill="#1A1A1A" opacity="0.59"/><circle cx="325.0" cy="565.0" r="2.40" fill="#1A1A1A" opacity="0.58"/><circle cx="355.0" cy="565.0" r="2.20" fill="#1A1A1A" opacity="0.55"/><circle cx="365.0" cy="565.0" r="2.35" fill="#1A1A1A" opacity="0.57"/><circle cx="385.0" cy="565.0" r="2.52" fill="#1A1A1A" opacity="0.60"/><circle cx="395.0" cy="565.0" r="2.43" fill="#1A1A1A" opacity="0.59"/><circle cx="405.0" cy="565.0" r="2.20" fill="#1A1A1A" opacity="0.55"/><circle cx="415.0" cy="565.0" r="2.27" fill="#1A1A1A" opacity="0.56"/><circle cx="425.0" cy="565.0" r="2.52" fill="#1A1A1A" opacity="0.60"/><circle cx="135.0" cy="575.0" r="2.20" fill="#1A1A1A" opacity="0.55"/><circle cx="165.0" cy="575.0" r="2.50" fill="#1A1A1A" opacity="0.60"/><circle cx="215.0" cy="575.0" r="2.20" fill="#1A1A1A" opacity="0.55"/><circle cx="255.0" cy="575.0" r="2.30" fill="#1A1A1A" opacity="0.57"/><circle cx="285.0" cy="575.0" r="2.20" fill="#1A1A1A" opacity="0.55"/><circle cx="315.0" cy="575.0" r="2.50" fill="#1A1A1A" opacity="0.60"/><circle cx="325.0" cy="575.0" r="2.20" fill="#1A1A1A" opacity="0.55"/><circle cx="355.0" cy="575.0" r="2.20" fill="#1A1A1A" opacity="0.55"/><circle cx="365.0" cy="575.0" r="2.20" fill="#1A1A1A" opacity="0.55"/><circle cx="375.0" cy="575.0" r="2.80" fill="#1A1A1A" opacity="0.65"/><circle cx="385.0" cy="575.0" r="3.00" fill="#1A1A1A" opacity="0.68"/><circle cx="405.0" cy="575.0" r="2.20" fill="#1A1A1A" opacity="0.55"/><circle cx="415.0" cy="575.0" r="2.30" fill="#1A1A1A" opacity="0.57"/><circle cx="425.0" cy="575.0" r="2.40" fill="#1A1A1A" opacity="0.58"/><circle cx="445.0" cy="575.0" r="2.20" fill="#1A1A1A" opacity="0.55"/><circle cx="455.0" cy="575.0" r="2.20" fill="#1A1A1A" opacity="0.55"/><circle cx="125.0" cy="585.0" r="3.10" fill="#1A1A1A" opacity="0.70"/><circle cx="135.0" cy="585.0" r="2.77" fill="#1A1A1A" opacity="0.64"/><circle cx="145.0" cy="585.0" r="2.68" fill="#1A1A1A" opacity="0.63"/><circle cx="155.0" cy="585.0" r="2.80" fill="#1A1A1A" opacity="0.65"/><circle cx="165.0" cy="585.0" r="3.10" fill="#1A1A1A" opacity="0.70"/><circle cx="175.0" cy="585.0" r="3.60" fill="#1A1A1A" opacity="0.78"/><circle cx="185.0" cy="585.0" r="3.50" fill="#1A1A1A" opacity="0.77"/><circle cx="195.0" cy="585.0" r="2.93" fill="#1A1A1A" opacity="0.67"/><circle cx="205.0" cy="585.0" r="2.68" fill="#1A1A1A" opacity="0.63"/><circle cx="215.0" cy="585.0" r="3.10" fill="#1A1A1A" opacity="0.70"/><circle cx="225.0" cy="585.0" r="2.52" fill="#1A1A1A" opacity="0.60"/><circle cx="235.0" cy="585.0" r="2.80" fill="#1A1A1A" opacity="0.65"/><circle cx="245.0" cy="585.0" r="2.93" fill="#1A1A1A" opacity="0.67"/><circle cx="255.0" cy="585.0" r="2.93" fill="#1A1A1A" opacity="0.67"/><circle cx="265.0" cy="585.0" r="3.00" fill="#1A1A1A" opacity="0.68"/><circle cx="275.0" cy="585.0" r="3.02" fill="#1A1A1A" opacity="0.69"/><circle cx="285.0" cy="585.0" r="3.02" fill="#1A1A1A" opacity="0.69"/><circle cx="295.0" cy="585.0" r="3.00" fill="#1A1A1A" opacity="0.68"/><circle cx="305.0" cy="585.0" r="2.85" fill="#1A1A1A" opacity="0.66"/><circle cx="315.0" cy="585.0" r="2.85" fill="#1A1A1A" opacity="0.66"/><circle cx="325.0" cy="585.0" r="2.50" fill="#1A1A1A" opacity="0.60"/><circle cx="335.0" cy="585.0" r="2.77" fill="#1A1A1A" opacity="0.64"/><circle cx="345.0" cy="585.0" r="2.68" fill="#1A1A1A" opacity="0.63"/><circle cx="355.0" cy="585.0" r="2.50" fill="#1A1A1A" opacity="0.60"/><circle cx="365.0" cy="585.0" r="2.85" fill="#1A1A1A" opacity="0.66"/><circle cx="375.0" cy="585.0" r="3.20" fill="#1A1A1A" opacity="0.72"/><circle cx="385.0" cy="585.0" r="2.77" fill="#1A1A1A" opacity="0.64"/><circle cx="395.0" cy="585.0" r="2.43" fill="#1A1A1A" opacity="0.59"/><circle cx="405.0" cy="585.0" r="2.50" fill="#1A1A1A" opacity="0.60"/><circle cx="415.0" cy="585.0" r="2.60" fill="#1A1A1A" opacity="0.62"/><circle cx="425.0" cy="585.0" r="2.77" fill="#1A1A1A" opacity="0.64"/><circle cx="435.0" cy="585.0" r="3.40" fill="#1A1A1A" opacity="0.75"/><circle cx="445.0" cy="585.0" r="3.27" fill="#1A1A1A" opacity="0.73"/><circle cx="455.0" cy="585.0" r="2.43" fill="#1A1A1A" opacity="0.59"/><circle cx="465.0" cy="585.0" r="2.60" fill="#1A1A1A" opacity="0.62"/><circle cx="475.0" cy="585.0" r="2.43" fill="#1A1A1A" opacity="0.59"/><circle cx="485.0" cy="585.0" r="2.70" fill="#1A1A1A" opacity="0.63"/><circle cx="125.0" cy="595.0" r="2.90" fill="#1A1A1A" opacity="0.67"/><circle cx="135.0" cy="595.0" r="2.77" fill="#1A1A1A" opacity="0.64"/><circle cx="205.0" cy="595.0" r="2.60" fill="#1A1A1A" opacity="0.62"/><circle cx="235.0" cy="595.0" r="2.70" fill="#1A1A1A" opacity="0.63"/><circle cx="265.0" cy="595.0" r="2.40" fill="#1A1A1A" opacity="0.58"/><circle cx="295.0" cy="595.0" r="2.40" fill="#1A1A1A" opacity="0.58"/><circle cx="315.0" cy="595.0" r="2.68" fill="#1A1A1A" opacity="0.63"/><circle cx="335.0" cy="595.0" r="2.27" fill="#1A1A1A" opacity="0.56"/><circle cx="345.0" cy="595.0" r="2.60" fill="#1A1A1A" opacity="0.62"/><circle cx="355.0" cy="595.0" r="2.50" fill="#1A1A1A" opacity="0.60"/><circle cx="365.0" cy="595.0" r="2.93" fill="#1A1A1A" opacity="0.67"/><circle cx="455.0" cy="595.0" r="2.52" fill="#1A1A1A" opacity="0.60"/><circle cx="465.0" cy="595.0" r="2.60" fill="#1A1A1A" opacity="0.62"/><circle cx="475.0" cy="595.0" r="2.60" fill="#1A1A1A" opacity="0.62"/><circle cx="485.0" cy="595.0" r="3.00" fill="#1A1A1A" opacity="0.68"/><circle cx="125.0" cy="605.0" r="3.28" fill="#1A1A1A" opacity="0.73"/><circle cx="135.0" cy="605.0" r="2.90" fill="#1A1A1A" opacity="0.67"/><circle cx="235.0" cy="605.0" r="2.80" fill="#1A1A1A" opacity="0.65"/><circle cx="245.0" cy="605.0" r="3.20" fill="#1A1A1A" opacity="0.72"/><circle cx="285.0" cy="605.0" r="2.30" fill="#1A1A1A" opacity="0.57"/><circle cx="345.0" cy="605.0" r="2.20" fill="#1A1A1A" opacity="0.55"/><circle cx="355.0" cy="605.0" r="2.56" fill="#1A1A1A" opacity="0.61"/><circle cx="365.0" cy="605.0" r="3.20" fill="#1A1A1A" opacity="0.72"/><circle cx="375.0" cy="605.0" r="3.40" fill="#1A1A1A" opacity="0.75"/><circle cx="455.0" cy="605.0" r="2.70" fill="#1A1A1A" opacity="0.63"/><circle cx="465.0" cy="605.0" r="2.56" fill="#1A1A1A" opacity="0.61"/><circle cx="475.0" cy="605.0" r="2.70" fill="#1A1A1A" opacity="0.63"/><circle cx="485.0" cy="605.0" r="3.40" fill="#1A1A1A" opacity="0.75"/><circle cx="135.0" cy="615.0" r="2.52" fill="#1A1A1A" opacity="0.60"/><circle cx="205.0" cy="615.0" r="2.43" fill="#1A1A1A" opacity="0.59"/><circle cx="265.0" cy="615.0" r="2.40" fill="#1A1A1A" opacity="0.58"/><circle cx="365.0" cy="615.0" r="2.68" fill="#1A1A1A" opacity="0.63"/><circle cx="415.0" cy="615.0" r="2.27" fill="#1A1A1A" opacity="0.56"/><circle cx="435.0" cy="615.0" r="2.70" fill="#1A1A1A" opacity="0.63"/><circle cx="455.0" cy="615.0" r="2.27" fill="#1A1A1A" opacity="0.56"/><circle cx="465.0" cy="615.0" r="2.20" fill="#1A1A1A" opacity="0.55"/><circle cx="475.0" cy="615.0" r="2.27" fill="#1A1A1A" opacity="0.56"/><circle cx="135.0" cy="625.0" r="2.20" fill="#1A1A1A" opacity="0.55"/><circle cx="235.0" cy="625.0" r="2.56" fill="#1A1A1A" opacity="0.61"/><circle cx="245.0" cy="625.0" r="3.20" fill="#1A1A1A" opacity="0.72"/><circle cx="455.0" cy="625.0" r="2.20" fill="#1A1A1A" opacity="0.55"/><circle cx="475.0" cy="625.0" r="2.30" fill="#1A1A1A" opacity="0.57"/><circle cx="135.0" cy="635.0" r="2.60" fill="#1A1A1A" opacity="0.62"/><circle cx="145.0" cy="635.0" r="2.43" fill="#1A1A1A" opacity="0.59"/><circle cx="175.0" cy="635.0" r="2.27" fill="#1A1A1A" opacity="0.56"/><circle cx="195.0" cy="635.0" r="2.43" fill="#1A1A1A" opacity="0.59"/><circle cx="225.0" cy="635.0" r="2.27" fill="#1A1A1A" opacity="0.56"/><circle cx="235.0" cy="635.0" r="2.70" fill="#1A1A1A" opacity="0.63"/><circle cx="245.0" cy="635.0" r="2.43" fill="#1A1A1A" opacity="0.59"/><circle cx="255.0" cy="635.0" r="2.43" fill="#1A1A1A" opacity="0.59"/><circle cx="305.0" cy="635.0" r="2.43" fill="#1A1A1A" opacity="0.59"/><circle cx="325.0" cy="635.0" r="2.60" fill="#1A1A1A" opacity="0.62"/><circle cx="355.0" cy="635.0" r="2.30" fill="#1A1A1A" opacity="0.57"/><circle cx="365.0" cy="635.0" r="2.60" fill="#1A1A1A" opacity="0.62"/><circle cx="375.0" cy="635.0" r="2.80" fill="#1A1A1A" opacity="0.65"/><circle cx="425.0" cy="635.0" r="2.27" fill="#1A1A1A" opacity="0.56"/><circle cx="445.0" cy="635.0" r="2.35" fill="#1A1A1A" opacity="0.57"/><circle cx="455.0" cy="635.0" r="2.27" fill="#1A1A1A" opacity="0.56"/><circle cx="465.0" cy="635.0" r="2.30" fill="#1A1A1A" opacity="0.57"/><circle cx="475.0" cy="635.0" r="2.43" fill="#1A1A1A" opacity="0.59"/><circle cx="135.0" cy="645.0" r="2.52" fill="#1A1A1A" opacity="0.60"/><circle cx="145.0" cy="645.0" r="2.68" fill="#1A1A1A" opacity="0.63"/><circle cx="155.0" cy="645.0" r="2.50" fill="#1A1A1A" opacity="0.60"/><circle cx="165.0" cy="645.0" r="2.68" fill="#1A1A1A" opacity="0.63"/><circle cx="175.0" cy="645.0" r="2.52" fill="#1A1A1A" opacity="0.60"/><circle cx="185.0" cy="645.0" r="3.40" fill="#1A1A1A" opacity="0.75"/><circle cx="195.0" cy="645.0" r="2.93" fill="#1A1A1A" opacity="0.67"/><circle cx="205.0" cy="645.0" r="2.68" fill="#1A1A1A" opacity="0.63"/><circle cx="225.0" cy="645.0" r="2.60" fill="#1A1A1A" opacity="0.62"/><circle cx="235.0" cy="645.0" r="2.70" fill="#1A1A1A" opacity="0.63"/><circle cx="245.0" cy="645.0" r="3.02" fill="#1A1A1A" opacity="0.69"/><circle cx="255.0" cy="645.0" r="2.85" fill="#1A1A1A" opacity="0.66"/><circle cx="265.0" cy="645.0" r="2.50" fill="#1A1A1A" opacity="0.60"/><circle cx="275.0" cy="645.0" r="2.60" fill="#1A1A1A" opacity="0.62"/><circle cx="285.0" cy="645.0" r="2.77" fill="#1A1A1A" opacity="0.64"/><circle cx="295.0" cy="645.0" r="2.90" fill="#1A1A1A" opacity="0.67"/><circle cx="305.0" cy="645.0" r="2.93" fill="#1A1A1A" opacity="0.67"/><circle cx="315.0" cy="645.0" r="2.85" fill="#1A1A1A" opacity="0.66"/><circle cx="325.0" cy="645.0" r="2.30" fill="#1A1A1A" opacity="0.57"/><circle cx="335.0" cy="645.0" r="3.02" fill="#1A1A1A" opacity="0.69"/><circle cx="345.0" cy="645.0" r="2.60" fill="#1A1A1A" opacity="0.62"/><circle cx="355.0" cy="645.0" r="2.40" fill="#1A1A1A" opacity="0.58"/><circle cx="365.0" cy="645.0" r="2.60" fill="#1A1A1A" opacity="0.62"/><circle cx="375.0" cy="645.0" r="2.70" fill="#1A1A1A" opacity="0.63"/><circle cx="385.0" cy="645.0" r="2.52" fill="#1A1A1A" opacity="0.60"/><circle cx="395.0" cy="645.0" r="2.52" fill="#1A1A1A" opacity="0.60"/><circle cx="405.0" cy="645.0" r="2.30" fill="#1A1A1A" opacity="0.57"/><circle cx="415.0" cy="645.0" r="2.77" fill="#1A1A1A" opacity="0.64"/><circle cx="425.0" cy="645.0" r="2.77" fill="#1A1A1A" opacity="0.64"/><circle cx="435.0" cy="645.0" r="3.10" fill="#1A1A1A" opacity="0.70"/><circle cx="445.0" cy="645.0" r="2.52" fill="#1A1A1A" opacity="0.60"/><circle cx="455.0" cy="645.0" r="2.35" fill="#1A1A1A" opacity="0.57"/><circle cx="475.0" cy="645.0" r="2.43" fill="#1A1A1A" opacity="0.59"/><circle cx="155.0" cy="655.0" r="2.20" fill="#1A1A1A" opacity="0.55"/><circle cx="165.0" cy="655.0" r="2.70" fill="#1A1A1A" opacity="0.63"/><circle cx="175.0" cy="655.0" r="2.60" fill="#1A1A1A" opacity="0.62"/><circle cx="195.0" cy="655.0" r="3.10" fill="#1A1A1A" opacity="0.70"/><circle cx="205.0" cy="655.0" r="2.90" fill="#1A1A1A" opacity="0.67"/><circle cx="215.0" cy="655.0" r="2.44" fill="#1A1A1A" opacity="0.59"/><circle cx="225.0" cy="655.0" r="2.50" fill="#1A1A1A" opacity="0.60"/><circle cx="235.0" cy="655.0" r="3.04" fill="#1A1A1A" opacity="0.69"/><circle cx="255.0" cy="655.0" r="3.00" fill="#1A1A1A" opacity="0.68"/><circle cx="265.0" cy="655.0" r="2.68" fill="#1A1A1A" opacity="0.63"/><circle cx="275.0" cy="655.0" r="2.50" fill="#1A1A1A" opacity="0.60"/><circle cx="285.0" cy="655.0" r="2.40" fill="#1A1A1A" opacity="0.58"/><circle cx="305.0" cy="655.0" r="3.10" fill="#1A1A1A" opacity="0.70"/><circle cx="315.0" cy="655.0" r="3.20" fill="#1A1A1A" opacity="0.72"/><circle cx="345.0" cy="655.0" r="2.20" fill="#1A1A1A" opacity="0.55"/><circle cx="355.0" cy="655.0" r="2.80" fill="#1A1A1A" opacity="0.65"/><circle cx="365.0" cy="655.0" r="3.20" fill="#1A1A1A" opacity="0.72"/><circle cx="375.0" cy="655.0" r="3.40" fill="#1A1A1A" opacity="0.75"/><circle cx="385.0" cy="655.0" r="2.70" fill="#1A1A1A" opacity="0.63"/><circle cx="395.0" cy="655.0" r="2.70" fill="#1A1A1A" opacity="0.63"/><circle cx="405.0" cy="655.0" r="2.20" fill="#1A1A1A" opacity="0.55"/><circle cx="425.0" cy="655.0" r="3.20" fill="#1A1A1A" opacity="0.72"/><circle cx="435.0" cy="655.0" r="3.40" fill="#1A1A1A" opacity="0.75"/><circle cx="445.0" cy="655.0" r="2.90" fill="#1A1A1A" opacity="0.67"/><circle cx="455.0" cy="655.0" r="2.60" fill="#1A1A1A" opacity="0.62"/><circle cx="465.0" cy="655.0" r="2.20" fill="#1A1A1A" opacity="0.55"/><circle cx="165.0" cy="665.0" r="2.35" fill="#1A1A1A" opacity="0.57"/><circle cx="175.0" cy="665.0" r="2.52" fill="#1A1A1A" opacity="0.60"/><circle cx="185.0" cy="665.0" r="2.70" fill="#1A1A1A" opacity="0.63"/><circle cx="195.0" cy="665.0" r="2.43" fill="#1A1A1A" opacity="0.59"/><circle cx="205.0" cy="665.0" r="2.27" fill="#1A1A1A" opacity="0.56"/><circle cx="215.0" cy="665.0" r="2.30" fill="#1A1A1A" opacity="0.57"/><circle cx="225.0" cy="665.0" r="2.27" fill="#1A1A1A" opacity="0.56"/><circle cx="245.0" cy="665.0" r="2.35" fill="#1A1A1A" opacity="0.57"/><circle cx="265.0" cy="665.0" r="2.40" fill="#1A1A1A" opacity="0.58"/><circle cx="315.0" cy="665.0" r="2.60" fill="#1A1A1A" opacity="0.62"/><circle cx="355.0" cy="665.0" r="2.40" fill="#1A1A1A" opacity="0.58"/><circle cx="385.0" cy="665.0" r="2.27" fill="#1A1A1A" opacity="0.56"/><circle cx="395.0" cy="665.0" r="2.27" fill="#1A1A1A" opacity="0.56"/><circle cx="425.0" cy="665.0" r="2.68" fill="#1A1A1A" opacity="0.63"/><circle cx="435.0" cy="665.0" r="2.60" fill="#1A1A1A" opacity="0.62"/><circle cx="185.0" cy="675.0" r="2.20" fill="#1A1A1A" opacity="0.55"/><circle cx="205.0" cy="675.0" r="2.30" fill="#1A1A1A" opacity="0.57"/><circle cx="385.0" cy="675.0" r="2.20" fill="#1A1A1A" opacity="0.55"/><circle cx="425.0" cy="675.0" r="2.20" fill="#1A1A1A" opacity="0.55"/><circle cx="435.0" cy="675.0" r="2.44" fill="#1A1A1A" opacity="0.59"/><circle cx="175.0" cy="685.0" r="2.35" fill="#1A1A1A" opacity="0.57"/><circle cx="185.0" cy="685.0" r="2.60" fill="#1A1A1A" opacity="0.62"/><circle cx="205.0" cy="685.0" r="2.35" fill="#1A1A1A" opacity="0.57"/><circle cx="235.0" cy="685.0" r="2.40" fill="#1A1A1A" opacity="0.58"/><circle cx="385.0" cy="685.0" r="2.27" fill="#1A1A1A" opacity="0.56"/><circle cx="425.0" cy="685.0" r="2.43" fill="#1A1A1A" opacity="0.59"/><circle cx="435.0" cy="685.0" r="2.70" fill="#1A1A1A" opacity="0.63"/><circle cx="445.0" cy="685.0" r="2.43" fill="#1A1A1A" opacity="0.59"/><circle cx="165.0" cy="695.0" r="2.35" fill="#1A1A1A" opacity="0.57"/><circle cx="175.0" cy="695.0" r="2.52" fill="#1A1A1A" opacity="0.60"/><circle cx="205.0" cy="695.0" r="2.60" fill="#1A1A1A" opacity="0.62"/><circle cx="215.0" cy="695.0" r="2.20" fill="#1A1A1A" opacity="0.55"/><circle cx="405.0" cy="695.0" r="2.20" fill="#1A1A1A" opacity="0.55"/><circle cx="415.0" cy="695.0" r="2.52" fill="#1A1A1A" opacity="0.60"/><circle cx="435.0" cy="695.0" r="2.90" fill="#1A1A1A" opacity="0.67"/><circle cx="445.0" cy="695.0" r="2.60" fill="#1A1A1A" opacity="0.62"/></svg>